<?xml version="1.0" standalone="no"?>
<!DOCTYPE svg PUBLIC "-//W3C//DTD SVG 1.1//EN" "http://www.w3.org/Graphics/SVG/1.1/DTD/svg11.dtd">
<svg xmlns="http://www.w3.org/2000/svg">
<defs >
<font id="Changa" horiz-adv-x="602" ><font-face
    font-family="Changa"
    units-per-em="1000"
    panose-1="0 0 5 0 0 0 0 0 0 0"
    ascent="1227"
    descent="-613"
    alphabetic="0" />
<glyph unicode=" " glyph-name="space" horiz-adv-x="250" />
<glyph unicode="!" glyph-name="exclam" horiz-adv-x="250" d="M63 627Q63 645 87 645H161Q186 645 186 627L156 196H93L63 627ZM60 100T73 115T125 131Q163 131 176 116T190 62Q190 24 177 9T125 -6Q86 -6 73 9T60 62Q60 100 73 115Z" />
<glyph unicode="&quot;" glyph-name="quotedbl" horiz-adv-x="410" d="M60 565V623Q60 650 97 650H133Q170 650 170 623V565L135 390H95L60 565ZM240 565V623Q240 650 277 650H313Q350 650 350 623V565L315 390H275L240 565Z" />
<glyph unicode="#" glyph-name="numbersign" horiz-adv-x="739" d="M712 467L697 430Q689 412 681 407T656 402H572L500 221H612L597 184Q589 166 581 161T556 156H475L407 -15Q401 -29 393 -34T364 -40H323L401 156H218L150 -15Q144 -29 136 -34T107 -40H66L144
156H30L45 193Q52 210 61 215T87 221H169L241 402H130L145 439Q152 456 161 461T187 467H267L335 640Q341 654 349 659T378 665H419L341 467H524L592 640Q598 654 606 659T635 665H676L598 467H712ZM498 402H315L243 221H426L498 402Z" />
<glyph unicode="$" glyph-name="dollar" horiz-adv-x="528" d="M473 113T454 76T391 21T272 1L261 -130H197L208 2Q134 5 61 24L75 102Q131 86 215 81L232 274Q166 282 131 299T82 348T68 439Q68 508 86 548T143 606T249 624H263L274 754H338L326 621Q381 618
442 606L429 531Q376 541 320 544L303 353Q369 346 405 328T457 274T473 177Q473 113 454 76ZM239 358L256 545H255Q209 545 172 541V362L239 358ZM369 263L296 268L279 80Q302 80 369 85V263Z" />
<glyph unicode="%" glyph-name="percent" horiz-adv-x="1161" d="M66 522T78 565T126 624T240 640Q318 640 353 625T400 566T413 427Q413 330 401 287T354 229T240 214Q161 214 126 229T78 287T66 427Q66 522 78 565ZM135 304Q135 283 148 277T202 270H345V550Q345
571 331 578T273 585H135V304ZM485 -29T477 -34T450 -40H429L668 640Q673 653 682 659T711 665H732L493 -15Q485 -29 477 -34ZM748 298T760 341T808 400T922 416Q1000 416 1035 401T1082 342T1095 203Q1095 106 1083 63T1036 5T922 -10Q843 -10 808 5T760 63T748
203Q748 298 760 341ZM817 80Q817 59 830 53T884 46H1027V326Q1027 347 1013 354T955 361H817V80Z" />
<glyph unicode="&amp;" glyph-name="ampersand" horiz-adv-x="584" d="M558 272H502V-106L449 -113L432 27Q358 2 315 -6T227 -15Q148 -15 112 29T75 170Q75 319 166 343V347L115 363Q118 475 138 533T204 616T336 640Q372 640 412 634T475 619L462 537Q435 544
391 549T314 555Q260 555 241 539T221 479V351H570L558 272ZM402 272H182V141Q182 98 205 76T273 54Q312 54 347 59T426 78L402 272Z" />
<glyph unicode="&apos;" glyph-name="quotesingle" horiz-adv-x="230" d="M60 565V623Q60 650 97 650H133Q170 650 170 623V565L135 390H95L60 565Z" />
<glyph unicode="(" glyph-name="parenleft" horiz-adv-x="306" d="M40 -23T40 312Q40 647 242 730L256 654Q198 604 169 529T140 312Q140 170 169 95T256 -30L242 -106Q40 -23 40 312Z" />
<glyph unicode=")" glyph-name="parenright" horiz-adv-x="306" d="M50 -30Q108 20 137 95T166 312Q166 454 137 529T50 654L64 730Q266 647 266 312Q266 -23 64 -106L50 -30Z" />
<glyph unicode="*" glyph-name="asterisk" horiz-adv-x="518" d="M419 531L298 516L388 433L417 392L339 335L310 377L259 488L208 377L179 335L101 392L130 433L220 516L99 531L50 546L80 637L129 621L236 561L211 682V733H307V682L282 561L389 621L438 637L468
546L419 531Z" />
<glyph unicode="+" glyph-name="plus" horiz-adv-x="530" d="M450 272H305V127H225V272H80V352H225V497H305V352H450V272Z" />
<glyph unicode="," glyph-name="comma" horiz-adv-x="230" d="M71 -94L91 -4Q68 1 59 15T50 62Q50 101 64 116T117 131Q152 131 166 116T180 62Q180 45 175 26T154 -27L116 -108L71 -94Z" />
<glyph unicode="-" glyph-name="hyphen" horiz-adv-x="350" d="M33 305T44 311T84 317H317V267Q317 245 306 239T266 233H33V283Q33 305 44 311Z" />
<glyph unicode="." glyph-name="period" horiz-adv-x="230" d="M50 100T63 115T115 131Q153 131 166 116T180 62Q180 24 167 9T115 -6Q76 -6 63 9T50 62Q50 100 63 115Z" />
<glyph unicode="/" glyph-name="slash" horiz-adv-x="404" d="M67 -30T58 -35T31 -40H0L330 640Q337 655 346 660T373 665H404L74 -15Q67 -30 58 -35Z" />
<glyph unicode="0" glyph-name="zero" horiz-adv-x="623" d="M60 458T78 524T148 615T312 640Q424 640 475 616T544 525T563 312Q563 163 546 97T477 8T312 -15Q198 -15 147 8T78 97T60 312Q60 458 78 524ZM167 123Q167 101 174 90T201 75T260 70H456V502Q456
524 448 535T418 550T357 555H167V123Z" />
<glyph unicode="1" glyph-name="one" horiz-adv-x="435" d="M35 83H183V540L25 522V610L283 640V83H405V0H35V83Z" />
<glyph unicode="2" glyph-name="two" horiz-adv-x="550" d="M55 85Q55 168 75 209T159 288T383 391V548Q354 555 289 555Q188 555 83 536L70 614Q157 640 276 640Q387 640 438 602T490 481Q490 413 468 375T379 300T150 196V83H479V0H55V85Z" />
<glyph unicode="3" glyph-name="three" horiz-adv-x="501" d="M108 -15T30 11L42 89Q83 80 135 75T235 70Q316 70 344 77V268L170 290V343L344 371V548Q317 555 256 555Q208 555 156 550T63 536L52 614Q133 640 252 640Q451 640 451 471Q451 419 431 379T373 319V314Q413
292 432 256T451 163Q451 96 429 58T358 2T222 -15Q108 -15 30 11Z" />
<glyph unicode="4" glyph-name="four" horiz-adv-x="574" d="M30 139V189L258 625H459V222H524V139H459V0H359V139H30ZM359 222V550H320L148 222H359Z" />
<glyph unicode="5" glyph-name="five" horiz-adv-x="530" d="M144 -15T60 11L73 89Q173 70 269 70Q341 70 373 77V244L290 252Q199 262 156 274T97 310T80 379L90 625H452L444 542H190V350L249 344Q341 335 390 316T459 262T480 164Q480 71 429 28T266 -15Q144
-15 60 11Z" />
<glyph unicode="6" glyph-name="six" horiz-adv-x="564" d="M509 110T487 67T416 4T282 -15Q184 -15 137 10T73 103T55 312Q55 446 76 515T150 612T305 640Q343 640 399 632T483 614L470 536Q435 544 385 549T292 555Q249 555 212 553T162 548V365H308Q413 365
461 322T509 185Q509 110 487 67ZM225 286Q187 286 175 278T162 244V64H339Q377 64 389 72T402 106V286H225Z" />
<glyph unicode="7" glyph-name="seven" horiz-adv-x="467" d="M116 0L318 542H33L25 625H427V563L217 0H116Z" />
<glyph unicode="8" glyph-name="eight" horiz-adv-x="580" d="M374 640T422 623T493 569T515 469Q515 419 503 374T471 302V295Q496 279 510 245T525 171Q525 94 506 55T437 1T291 -15Q194 -15 145 0T75 55T55 171Q55 221 71 264T113 329V336Q90 356 78 391T65
469Q65 532 87 569T159 623T291 640Q374 640 422 623ZM392 330T395 330Q405 330 411 335T418 348V561H232Q190 561 176 553T162 519V408L378 334Q392 330 395 330ZM182 307T174 307Q162 307 162 290V64H347Q389 64 403 72T417 106L418 226L197 301Q182 307 174
307Z" />
<glyph unicode="9" glyph-name="nine" horiz-adv-x="564" d="M55 516T77 559T148 621T282 640Q380 640 427 615T491 523T509 314Q509 180 488 111T413 13T258 -15Q218 -15 159 -7T71 12L83 90Q121 82 174 77T271 71Q314 71 351 73T402 78V261H256Q151 261 103
304T55 441Q55 516 77 559ZM162 383Q162 357 172 349T215 341H402V520Q402 545 392 553T349 562H162V383Z" />
<glyph unicode=":" glyph-name="colon" horiz-adv-x="221" d="M50 100T63 115T115 131Q153 131 166 116T180 62Q180 24 167 9T115 -6Q76 -6 63 9T50 62Q50 100 63 115ZM50 474T63 489T115 505Q153 505 166 490T180 436Q180 398 167 383T115 368Q76 368 63 383T50
436Q50 474 63 489Z" />
<glyph unicode=";" glyph-name="semicolon" horiz-adv-x="221" d="M71 -94L91 -4Q68 1 59 15T50 62Q50 101 64 116T117 131Q152 131 166 116T180 62Q180 45 175 26T154 -27L116 -108L71 -94ZM50 474T63 489T115 505Q153 505 166 490T180 436Q180 398 167 383T115
368Q76 368 63 383T50 436Q50 474 63 489Z" />
<glyph unicode="&lt;" glyph-name="less" horiz-adv-x="530" d="M450 412L158 312L450 212V130L80 260V364L450 494V412Z" />
<glyph unicode="=" glyph-name="equal" horiz-adv-x="530" d="M450 508V428H80V508H450ZM450 452V372H80V452H450Z" />
<glyph unicode="&gt;" glyph-name="greater" horiz-adv-x="530" d="M450 364V260L80 130V212L372 312L80 412V494L450 364Z" />
<glyph unicode="?" glyph-name="question" horiz-adv-x="418" d="M131 365Q130 378 143 386T196 409L291 442V559Q250 565 202 565Q143 565 46 545L33 613Q121 640 200 640Q272 640 314 627T376 584T396 503Q396 454 384 429T334 383T210 332L205 196H142L131
365ZM109 100T122 115T174 131Q212 131 225 116T239 62Q239 24 226 9T174 -6Q135 -6 122 9T109 62Q109 100 122 115Z" />
<glyph unicode="@" glyph-name="at" horiz-adv-x="811" d="M578 580T652 535T726 393V0H680L653 50Q617 19 574 5T474 -10Q391 -10 356 24T321 140Q321 213 341 245T419 288T611 299H627V473Q598 477 545 480T441 483Q361 483 306 473T213 425T175 310V84Q175
11 206 -25T286 -70T407 -80H600V-148Q510 -165 434 -165Q303 -165 222 -133T100 -27T60 178V259Q60 437 152 508T416 580Q578 580 652 535ZM593 67T609 79T626 125V234H493Q446 234 429 222T412 176V67H546Q593 67 609 79Z" />
<glyph unicode="A" glyph-name="A" horiz-adv-x="551" d="M395 140H156L115 0H15L200 625H351L536 0H436L395 140ZM372 219L280 533H271L179 219H372Z" />
<glyph unicode="B" glyph-name="B" horiz-adv-x="582" d="M484 301T508 265T532 176Q532 91 489 46T362 0H90V625H330Q418 625 459 588T501 470Q501 414 487 379T440 322V316Q484 301 508 265ZM401 508T384 530T322 552H190V350H321Q366 350 383 372T401 450Q401
508 384 530ZM393 73T412 98T432 182Q432 235 413 257T349 280H190V73H348Q393 73 412 98Z" />
<glyph unicode="C" glyph-name="C" horiz-adv-x="489" d="M428 -3T388 -9T294 -15Q199 -15 151 13T84 110T65 312Q65 446 84 515T154 612T304 640Q338 640 381 634T451 619L438 537Q403 545 357 550T282 555Q221 555 197 540T172 479V83Q223 68 291 68Q369 68
454 93L464 11Q428 -3 388 -9Z" />
<glyph unicode="D" glyph-name="D" horiz-adv-x="624" d="M314 625Q419 625 470 601T540 512T559 312Q559 178 540 114T470 25T314 0H90V625H314ZM190 83H373Q417 83 434 99T451 156V469Q451 510 434 526T373 542H190V83Z" />
<glyph unicode="E" glyph-name="E" horiz-adv-x="515" d="M190 83H465V0H90V625H462L450 542H190V352H427V273H190V83Z" />
<glyph unicode="F" glyph-name="F" horiz-adv-x="450" d="M190 0H90V625H430L419 542H190V339H390V260H190V0Z" />
<glyph unicode="G" glyph-name="G" horiz-adv-x="570" d="M505 344V20Q456 1 404 -7T278 -15Q187 -15 143 10T82 103T65 312Q65 446 85 515T156 612T310 640Q349 640 399 634T481 619L468 537Q428 545 374 550T285 555Q221 555 196 541T171 479V65H416V265H321V344H505Z" />
<glyph unicode="H" glyph-name="H" horiz-adv-x="640" d="M550 625V0H450V270H190V0H90V625H190V349H450V625H550Z" />
<glyph unicode="I" glyph-name="I" horiz-adv-x="280" d="M190 625V0H90V625H190Z" />
<glyph unicode="J" glyph-name="J" horiz-adv-x="351" d="M113 80Q137 80 149 85T161 110V542H61V625H261V135Q261 58 224 29T106 0H32L20 80H113Z" />
<glyph unicode="K" glyph-name="K" horiz-adv-x="553" d="M543 0H432L359 155Q340 194 330 223T319 282H190V0H90V625H190V360H319Q319 390 329 420T359 487L427 625H538L388 321L543 0Z" />
<glyph unicode="L" glyph-name="L" horiz-adv-x="430" d="M90 625H190V83H420V0H90V625Z" />
<glyph unicode="M" glyph-name="M" horiz-adv-x="795" d="M117 625H255L394 157H401L540 625H678L720 0H621L589 493H583L438 0H357L212 493H206L174 0H75L117 625Z" />
<glyph unicode="N" glyph-name="N" horiz-adv-x="661" d="M95 625H192L434 235Q449 209 454 199T460 173H466V625H566V0H469L227 390Q212 416 207 426T201 452H195V0H95V625Z" />
<glyph unicode="O" glyph-name="O" horiz-adv-x="636" d="M65 453T85 521T157 614T318 640Q426 640 478 614T551 520T571 312Q571 172 551 104T479 11T318 -15Q209 -15 157 10T85 104T65 312Q65 453 85 521ZM378 70Q426 70 445 86T464 143V555H257Q209 555 191
539T172 482V70H378Z" />
<glyph unicode="P" glyph-name="P" horiz-adv-x="530" d="M190 0H90V625H335Q402 625 439 605T493 540T510 414Q510 302 473 254T350 206H190V0ZM336 285Q375 285 390 294T405 327V500Q405 524 390 533T336 542H190V285H336Z" />
<glyph unicode="Q" glyph-name="Q" horiz-adv-x="626" d="M568 -17L543 -72L370 -15V13L313 -15Q207 -15 156 10T85 104T65 312Q65 452 84 520T155 614T313 640Q418 640 470 614T541 520T561 312Q561 188 545 125T490 32L568 -17ZM370 70Q417 70 435 86T453 143V555H255Q209
555 191 539T173 482V70H370Z" />
<glyph unicode="R" glyph-name="R" horiz-adv-x="580" d="M436 0L332 221H190V0H90V625H340Q407 625 444 605T498 540T515 414Q515 337 496 294T432 233L545 0H436ZM190 300H341Q380 300 395 309T410 342V500Q410 524 395 533T341 542H190V300Z" />
<glyph unicode="S" glyph-name="S" horiz-adv-x="519" d="M101 81T154 75T257 68Q308 68 370 74V260L275 267Q183 274 137 290T73 342T54 445Q54 517 72 559T132 621T244 640Q345 640 446 621L433 542Q353 557 250 557Q199 557 163 552V364L274 357Q354 352 398
334T460 277T479 170Q479 100 457 60T385 3T248 -15Q142 -15 46 9L61 91Q101 81 154 75Z" />
<glyph unicode="T" glyph-name="T" horiz-adv-x="460" d="M280 0H180V542H15V625H445V542H280V0Z" />
<glyph unicode="U" glyph-name="U" horiz-adv-x="638" d="M219 -15T169 2T100 61T80 189V625H180V70H324Q380 70 408 74T447 90T458 123V625H558V189Q558 104 539 62T469 2T319 -15Q219 -15 169 2Z" />
<glyph unicode="V" glyph-name="V" horiz-adv-x="521" d="M110 625L256 92H265L411 625H511L336 0H185L10 625H110Z" />
<glyph unicode="W" glyph-name="W" horiz-adv-x="802" d="M777 625L672 0H516L401 496L286 0H130L25 625H125L211 92H220L348 625H454L582 92H591L677 625H777Z" />
<glyph unicode="X" glyph-name="X" horiz-adv-x="530" d="M408 0L260 237L119 0H10L206 324L18 625H130L270 401L403 625H512L325 313L520 0H408Z" />
<glyph unicode="Y" glyph-name="Y" horiz-adv-x="490" d="M480 625L295 215V0H195V215L10 625H114L245 319L376 625H480Z" />
<glyph unicode="Z" glyph-name="Z" horiz-adv-x="545" d="M35 67L377 536L374 542H85L73 625H510V558L168 89L171 83H494V0H35V67Z" />
<glyph unicode="[" glyph-name="bracketleft" horiz-adv-x="279" d="M70 665T86 687T139 720T242 730L249 653L166 645V-20L249 -28L242 -105Q176 -105 139 -95T86 -63T70 0V625Q70 665 86 687Z" />
<glyph unicode="\" glyph-name="backslash" horiz-adv-x="413" d="M41 665Q60 665 68 660T84 640L413 -40H372Q353 -40 345 -35T329 -15L0 665H41Z" />
<glyph unicode="]" glyph-name="bracketright" horiz-adv-x="279" d="M209 0Q209 -40 193 -62T140 -95T37 -105L30 -28L113 -20V645L30 653L37 730Q103 730 140 720T193 688T209 625V0Z" />
<glyph unicode="^" glyph-name="asciicircum" horiz-adv-x="530" d="M385 120L265 435L145 120H63L213 504H317L467 120H385Z" />
<glyph unicode="_" glyph-name="underscore" horiz-adv-x="495" d="M25 -10T38 -3T84 5H470V-37Q470 -64 457 -71T411 -79H25V-37Q25 -10 38 -3Z" />
<glyph unicode="`" glyph-name="grave" horiz-adv-x="600" d="M129 589Q115 593 107 599L80 621Q73 627 73 632Q73 636 80 644L123 697Q127 702 131 702Q134 702 139 698L291 588L269 554L129 589Z" />
<glyph unicode="a" glyph-name="a" horiz-adv-x="545" d="M345 510T385 497T442 453T460 370V0H414L387 50Q351 19 308 5T208 -10Q125 -10 90 24T55 140Q55 213 75 245T153 288T345 299H360V420Q323 431 259 431Q179 431 90 407L77 480Q114 493 169 501T276 510Q345
510 385 497ZM327 67T343 79T360 125V234H227Q180 234 163 222T146 176V67H280Q327 67 343 79Z" />
<glyph unicode="b" glyph-name="b" horiz-adv-x="569" d="M403 515T441 493T494 415T509 250Q509 142 493 88T434 12T309 -10H308Q248 -10 198 -3T90 21V665L190 677V491Q213 504 246 509T329 515Q403 515 441 493ZM404 433H236Q209 433 200 428T190 408V72H358Q384
72 394 76T404 92V433Z" />
<glyph unicode="c" glyph-name="c" horiz-adv-x="453" d="M166 -10T128 12T75 88T60 250Q60 357 75 412T128 488T240 510Q281 510 325 505T402 492L390 416Q318 431 251 431Q202 431 183 413T164 347V80Q200 69 266 69Q298 69 328 74T402 93L413 20Q379 6 334
-2T240 -10Q166 -10 128 12Z" />
<glyph unicode="d" glyph-name="d" horiz-adv-x="569" d="M479 677V0H433L411 40Q391 9 354 -3T250 -15Q170 -15 131 6T76 82T60 250Q60 356 75 411T127 488T236 510Q287 510 321 505T379 486V665L479 677ZM379 428H211Q184 428 175 423T165 403V67H333Q360 67
369 72T379 92V428Z" />
<glyph unicode="e" glyph-name="e" horiz-adv-x="541" d="M313 69T352 74T445 93L458 20Q421 6 367 -2T254 -10Q176 -10 135 12T77 90T60 250Q60 351 79 406T144 486T271 510Q352 510 394 497T454 453T471 360Q471 287 450 255T368 212T165 201V80Q205 69 272
69Q313 69 352 74ZM200 428T183 416T165 370V266H297Q346 266 363 278T381 324V428H248Q200 428 183 416Z" />
<glyph unicode="f" glyph-name="f" horiz-adv-x="333" d="M220 602V500H300V431H220V0H120V431H50V500H120Q124 569 136 606T172 659T241 675Q289 675 333 665L327 593L220 602Z" />
<glyph unicode="g" glyph-name="g" horiz-adv-x="506" d="M340 65T379 54T432 22T446 -39Q446 -86 427 -113T365 -153T247 -165Q193 -165 142 -157T53 -135L66 -59Q118 -72 154 -77T229 -83Q306 -83 357 -72V2Q255 8 212 18T169 45L196 148Q139 153 107 172T60
229T45 330Q45 401 63 440T124 497T242 515Q319 515 360 498L431 552L481 503L423 436Q440 398 440 330Q440 262 424 223T369 166T262 146L257 74Q340 65 379 54ZM144 212H268Q309 212 325 225T341 274V449H217Q176 449 160 436T144 387V212Z" />
<glyph unicode="h" glyph-name="h" horiz-adv-x="576" d="M90 657L188 665V467Q220 489 258 499T349 510Q419 510 455 489T491 425V0H391V428H275Q226 428 208 416T190 370V0H90V657Z" />
<glyph unicode="i" glyph-name="i" horiz-adv-x="280" d="M190 508V0H90V493L190 508ZM104 587T92 599T79 647Q79 683 92 696T141 709Q176 709 188 696T201 647Q201 612 189 600T141 587Q104 587 92 599Z" />
<glyph unicode="j" glyph-name="j" horiz-adv-x="280" d="M22 -175T-11 -164L-5 -106Q37 -106 56 -102T83 -85T90 -45V493L190 508V-60Q190 -119 160 -147T66 -175Q22 -175 -11 -164ZM104 587T92 599T79 647Q79 683 92 696T141 709Q176 709 188 696T201 647Q201
612 189 600T141 587Q104 587 92 599Z" />
<glyph unicode="k" glyph-name="k" horiz-adv-x="495" d="M190 232V0H90V650L190 665V302H269L375 500H480L352 267L485 0H382L269 232H190Z" />
<glyph unicode="l" glyph-name="l" horiz-adv-x="271" d="M205 71T231 69L225 1Q188 -10 159 -10Q121 -10 103 8T85 65V650L185 665V74Q205 71 231 69Z" />
<glyph unicode="m" glyph-name="m" horiz-adv-x="856" d="M699 510T735 489T771 425V0H671V428H565Q521 428 503 419T481 386V0H381V428H275Q226 428 208 416T190 370V0H90V500H136L163 450Q199 481 241 495T339 510Q442 510 471 464Q536 510 629 510Q699 510 735 489Z" />
<glyph unicode="n" glyph-name="n" horiz-adv-x="576" d="M90 500H136L163 450Q201 481 246 495T349 510Q419 510 455 489T491 425V0H391V428H275Q226 428 208 416T190 370V0H90V500Z" />
<glyph unicode="o" glyph-name="o" horiz-adv-x="554" d="M187 -10T142 11T78 88T60 250Q60 357 78 412T141 488T277 510Q368 510 413 489T476 413T494 250Q494 143 476 88T413 12T277 -10Q187 -10 142 11ZM342 72Q371 72 380 77T390 97V428H212Q183 428 174 423T164
403V72H342Z" />
<glyph unicode="p" glyph-name="p" horiz-adv-x="569" d="M404 510T442 489T494 413T509 250Q509 141 494 86T441 8T329 -15Q279 -15 246 -10T190 9V-165L90 -177V500H136L159 458Q180 488 219 499T329 510Q404 510 442 489ZM404 428H236Q210 428 200 424T190
408V67H358Q385 67 394 72T404 92V428Z" />
<glyph unicode="q" glyph-name="q" horiz-adv-x="569" d="M479 500V-165L379 -177V9Q356 -4 323 -9T240 -15Q166 -15 128 7T75 85T60 250Q60 358 74 412T127 488T240 510Q311 510 350 499T410 458L433 500H479ZM360 67T369 72T379 92V428H211Q185 428 175 424T165
408V67H333Q360 67 369 72Z" />
<glyph unicode="r" glyph-name="r" horiz-adv-x="334" d="M172 421Q217 461 249 483T309 515L319 417Q286 407 251 390T190 353V0H90V500H137L172 421Z" />
<glyph unicode="s" glyph-name="s" horiz-adv-x="481" d="M56 443T101 479T245 515Q332 515 411 493L397 420Q372 427 338 431T275 436Q215 436 161 427V309Q281 292 337 275T415 228T436 141Q436 84 416 50T349 1T226 -15Q140 -15 45 14L61 94Q138 64 225 64Q255
64 278 67T331 78V196Q202 214 147 231T74 276T56 366Q56 443 101 479Z" />
<glyph unicode="t" glyph-name="t" horiz-adv-x="354" d="M220 431V74Q256 70 291 69L285 1Q229 -10 194 -10Q156 -10 138 8T120 65V431H50V500H120V607L220 632V500H309V431H220Z" />
<glyph unicode="u" glyph-name="u" horiz-adv-x="576" d="M486 0H440L413 50Q373 19 326 5T217 -10Q149 -10 117 15T85 95V500H185V67H301Q350 67 368 79T386 125V500H486V0Z" />
<glyph unicode="v" glyph-name="v" horiz-adv-x="460" d="M105 500L225 85H235L355 500H454L306 0H154L6 500H105Z" />
<glyph unicode="w" glyph-name="w" horiz-adv-x="702" d="M696 500L573 0H435L351 356L267 0H129L6 500H105L200 85H210L305 500H397L492 85H502L597 500H696Z" />
<glyph unicode="x" glyph-name="x" horiz-adv-x="506" d="M373 0L248 183L132 0H26L195 260L31 500H138L258 324L369 500H475L310 248L480 0H373Z" />
<glyph unicode="y" glyph-name="y" horiz-adv-x="450" d="M444 500L301 30Q277 -49 250 -93T186 -156T93 -175Q44 -175 6 -164L10 -111L79 -102Q118 -97 138 -88T172 -58T196 0L205 30H149L6 500H105L220 115H230L345 500H444Z" />
<glyph unicode="z" glyph-name="z" horiz-adv-x="473" d="M305 428H68L60 500H433V445L164 78L167 72H428V0H40V55L309 422L305 428Z" />
<glyph unicode="{" glyph-name="braceleft" horiz-adv-x="316" d="M266 -27L260 -105Q192 -105 158 -99T105 -69T90 6L105 256L40 273V349L105 366L90 619Q87 671 103 694T153 724T260 730L266 652L183 645L201 447Q202 440 202 426Q202 354 145 317V305Q202 268
202 196Q202 182 201 175L183 -20L266 -27Z" />
<glyph unicode="|" glyph-name="bar" horiz-adv-x="260" d="M160 704V-180H100V704H160Z" />
<glyph unicode="}" glyph-name="braceright" horiz-adv-x="316" d="M115 175Q114 182 114 196Q114 268 171 305V317Q114 354 114 426Q114 440 115 447L133 645L50 652L56 730Q128 730 162 724T213 695T226 619L211 366L276 349V273L211 256L226 6Q229 -45 211
-68T159 -98T56 -105L50 -27L133 -20L115 175Z" />
<glyph unicode="~" glyph-name="asciitilde" horiz-adv-x="530" d="M413 240T371 240Q347 240 325 248T265 275Q230 292 206 301T158 310Q116 310 80 278V353Q116 385 158 385Q182 385 206 376T265 350Q302 332 324 324T371 315Q413 315 450 348V273Q413 240 371 240Z" />
<glyph unicode="&#xa0;" glyph-name="uni00A0" horiz-adv-x="600" />
<glyph unicode="&#xa1;" glyph-name="exclamdown" horiz-adv-x="250" d="M190 409T177 394T125 378Q87 378 74 393T60 447Q60 485 73 500T125 515Q164 515 177 500T190 447Q190 409 177 394ZM187 -118Q187 -136 163 -136H89Q64 -136 64 -118L94 313H157L187 -118Z" />
<glyph unicode="&#xa2;" glyph-name="cent" horiz-adv-x="453" d="M354 60T261 55L246 -130H182L197 57Q142 63 113 88T72 166T60 315Q60 422 75 477T128 553T240 575H243L259 754H323L307 572Q365 567 402 557L390 481Q318 496 251 496Q202 496 183 478T164 412V145Q200
134 266 134Q298 134 328 139T402 158L413 85Q354 60 261 55Z" />
<glyph unicode="&#xa3;" glyph-name="sterling" horiz-adv-x="526" d="M473 83L486 0H60V48L111 76L129 287H60V344H134L138 391Q146 484 170 538T239 616T359 640Q383 640 424 634T495 619L474 537Q447 545 409 550T340 555Q292 555 273 534T247 455L238 344H387L382
287H233L216 83H473Z" />
<glyph unicode="&#xa4;" glyph-name="currency" horiz-adv-x="680" d="M550 276T542 236T513 173L613 35L556 0L456 140Q416 129 341 129Q264 129 224 140L124 0L67 35L167 173Q146 195 138 235T130 343Q130 408 138 448T167 512L67 651L123 686L223 546Q262 558
341 558Q418 558 458 546L557 686L613 651L513 513Q533 489 541 449T550 343Q550 276 542 236ZM447 211V438Q447 461 432 469T371 477H233V248Q233 225 247 218T304 211H447Z" />
<glyph unicode="&#xa5;" glyph-name="yen" horiz-adv-x="490" d="M353 344H440V287H327L295 215V207H440V150H295V0H195V150H60V207H195V215L163 287H60V344H137L10 625H114L245 319L376 625H480L353 344Z" />
<glyph unicode="&#xa6;" glyph-name="brokenbar" horiz-adv-x="260" d="M160 704V368H100V704H160ZM160 156V-180H100V156H160Z" />
<glyph unicode="&#xa7;" glyph-name="section" horiz-adv-x="477" d="M421 115T429 93T437 35Q437 -22 417 -56T350 -105T227 -121Q144 -121 46 -92L62 -12Q139 -42 226 -42Q258 -42 280 -39T332 -28V90Q203 110 148 127T75 174T57 270Q57 334 94 367Q72 383 65
406T57 469Q57 546 102 582T246 618Q333 618 412 596L398 523Q373 530 340 534T276 539Q210 539 162 530V412Q281 394 338 376T416 326T437 234Q437 164 400 131Q421 115 429 93ZM273 178T332 162V309Q211 327 162 339V193Q273 178 332 162Z" />
<glyph unicode="&#xa8;" glyph-name="dieresis" horiz-adv-x="600" d="M70 575T60 587T50 632Q50 665 60 677T102 690Q133 690 143 678T153 632Q153 599 143 587T102 575Q70 575 60 587ZM253 575T243 587T233 632Q233 665 243 677T285 690Q316 690 326 678T336
632Q336 599 326 587T285 575Q253 575 243 587Z" />
<glyph unicode="&#xa9;" glyph-name="copyright" horiz-adv-x="563" d="M152 179T91 240T30 431Q30 561 91 621T282 682Q412 682 472 622T533 431Q533 301 473 240T282 179Q152 179 91 240ZM363 210T409 231T477 300T498 431Q498 513 477 560T410 629T282 651Q201
651 154 630T86 561T65 431Q65 348 86 301T154 232T282 210Q363 210 409 231ZM222 274T195 309T167 429Q167 515 194 550T289 586Q308 586 333 583T369 574L357 514Q329 521 296 521Q271 521 261 516T251 497V345Q266 341 289 341Q330 341 363 352L369 286Q342
274 289 274Q222 274 195 309Z" />
<glyph unicode="&#xaa;" glyph-name="ordfeminine" horiz-adv-x="396" d="M286 747T319 722T353 635L352 350H312L289 389Q233 342 150 342Q85 342 57 369T28 460Q28 514 44 538T106 571T254 580H266V673Q237 680 191 680Q136 680 57 662L46 724Q77 734 120 740T205
747Q286 747 319 722ZM240 407T253 416T266 450V531H169Q133 531 120 522T106 487V407H204Q240 407 253 416ZM45 272T54 280T90 289H335V260Q335 234 327 227T290 219H45V247Q45 272 54 280Z" />
<glyph unicode="&#xab;" glyph-name="guillemotleft" horiz-adv-x="432" d="M25 209V290L176 444L211 417L115 250L211 83L176 56L25 209ZM221 209V290L372 444L407 417L311 250L407 83L372 56L221 209Z" />
<glyph unicode="&#xac;" glyph-name="logicalnot" horiz-adv-x="530" d="M450 352V152H380V272H80V352H450Z" />
<glyph unicode="&#xae;" glyph-name="registered" horiz-adv-x="563" d="M30 561T91 621T282 682Q412 682 472 622T533 431Q533 301 473 240T282 179Q152 179 91 240T30 431Q30 561 91 621ZM65 348T86 301T154 232T282 210Q363 210 409 231T477 300T498 431Q498
513 477 560T410 629T282 651Q201 651 154 630T86 561T65 431Q65 348 86 301ZM284 378H247V281H170V581H302Q402 581 402 480Q402 446 391 423T357 389L413 281H326L284 378ZM288 437Q307 437 314 441T321 458V499Q321 511 315 515T288 519H247V437H288Z" />
<glyph unicode="&#xaf;" glyph-name="overscore" horiz-adv-x="600" d="M94 586T86 595T78 632V667H277Q306 667 313 658T321 622V586H123Q94 586 86 595Z" />
<glyph unicode="&#xb0;" glyph-name="degree" horiz-adv-x="407" d="M56 605T91 641T204 678Q281 678 316 642T351 531Q351 456 316 420T204 383Q126 383 91 419T56 531Q56 605 91 641ZM203 461Q236 461 250 467T265 500V600H208Q171 600 156 594T140 562V461H203Z" />
<glyph unicode="&#xb1;" glyph-name="plusminus" horiz-adv-x="531" d="M451 322H306V177H226V322H81V402H226V547H306V402H451V322ZM450 80V0H80V80H450Z" />
<glyph unicode="&#xb2;" glyph-name="uni00B2" horiz-adv-x="429" d="M64 379Q64 434 77 461T136 512T295 578V680Q270 685 229 685Q161 685 83 672L75 723Q135 740 216 740Q292 740 327 715T363 637Q363 593 349 569T288 520T125 451V378H355V324H64V379Z" />
<glyph unicode="&#xb3;" glyph-name="uni00B3" horiz-adv-x="400" d="M104 314T50 331L57 382Q120 370 193 370Q251 370 270 374V498L148 513V547L270 565V680Q248 685 209 685Q140 685 73 672L66 723Q122 740 203 740Q338 740 338 630Q338 596 324 570T285 531V528Q313
514 325 491T338 430Q338 389 326 364T279 327T180 314Q104 314 50 331Z" />
<glyph unicode="&#xb4;" glyph-name="acute" horiz-adv-x="600" d="M132 598L284 708Q289 712 292 712Q296 712 300 707L343 654Q350 646 350 642Q350 637 343 631L316 609Q308 603 294 599L154 564L132 598Z" />
<glyph unicode="&#xb5;" glyph-name="uni00B5" horiz-adv-x="581" d="M90 500H190V67H294Q339 67 365 82T391 145V500H491V0H444L418 50Q393 23 354 12T276 0H173L141 -165H90V500Z" />
<glyph unicode="&#xb6;" glyph-name="paragraph" horiz-adv-x="604" d="M205 67V297Q138 306 104 346T70 458Q70 625 257 625H524V542H474V0H379V542H269V0H110V35L205 67Z" />
<glyph unicode="&#xb7;" glyph-name="middot" horiz-adv-x="230" d="M50 274T63 289T115 305Q153 305 166 290T180 236Q180 198 167 183T115 168Q76 168 63 183T50 236Q50 274 63 289Z" />
<glyph unicode="&#xb8;" glyph-name="cedilla" horiz-adv-x="600" d="M32 -172T-3 -156L4 -107H39Q63 -107 72 -100T82 -75V21H102Q128 7 144 -24T161 -91Q161 -128 135 -150T65 -172Q32 -172 -3 -156Z" />
<glyph unicode="&#xb9;" glyph-name="uni00B9" horiz-adv-x="355" d="M53 378H156V675L46 663V721L219 740V378H305V324H53V378Z" />
<glyph unicode="&#xba;" glyph-name="ordmasculine" horiz-adv-x="500" d="M176 352T138 370T85 431T70 560Q70 645 85 688T138 750T250 768Q325 768 362 751T415 690T430 560Q430 475 415 431T362 370T250 352Q176 352 138 370ZM302 422Q325 422 333 426T341
442V698H198Q175 698 167 694T159 678V422H302ZM92 273T102 281T141 290H409V261Q409 236 400 228T360 220H92V248Q92 273 102 281Z" />
<glyph unicode="&#xbb;" glyph-name="guillemotright" horiz-adv-x="432" d="M211 291V210L60 56L25 83L121 250L25 417L60 444L211 291ZM407 291V210L256 56L221 83L317 250L221 417L256 444L407 291Z" />
<glyph unicode="&#xbc;" glyph-name="onequarter" horiz-adv-x="969" d="M53 278H156V575L46 563V621L219 640V278H305V224H53V278ZM361 -29T353 -34T326 -40H305L544 640Q549 653 558 659T587 665H608L369 -15Q361 -29 353 -34ZM568 90V123L731 406H862V144H908V90H862V0H799V90H568ZM799
144V358H771L645 144H799Z" />
<glyph unicode="&#xbd;" glyph-name="onehalf" horiz-adv-x="987" d="M53 278H156V575L46 563V621L219 640V278H305V224H53V278ZM361 -29T353 -34T326 -40H305L544 640Q549 653 558 659T587 665H608L369 -15Q361 -29 353 -34ZM622 55Q622 110 635 137T694 188T853
254V356Q828 361 787 361Q719 361 641 348L633 399Q693 416 774 416Q850 416 885 391T921 313Q921 269 907 245T846 196T683 127V54H913V0H622V55Z" />
<glyph unicode="&#xbe;" glyph-name="threequarters" horiz-adv-x="1014" d="M104 214T50 231L57 282Q120 270 193 270Q251 270 270 274V398L148 413V447L270 465V580Q248 585 209 585Q140 585 73 572L66 623Q122 640 203 640Q338 640 338 530Q338 496 324 470T285
431V428Q313 414 325 391T338 330Q338 289 326 264T279 227T180 214Q104 214 50 231ZM406 -29T398 -34T371 -40H350L589 640Q594 653 603 659T632 665H653L414 -15Q406 -29 398 -34ZM613 90V123L776 406H907V144H953V90H907V0H844V90H613ZM844 144V358H816L690
144H844Z" />
<glyph unicode="&#xbf;" glyph-name="questiondown" horiz-adv-x="418" d="M309 409T296 394T244 378Q206 378 193 393T179 447Q179 485 192 500T244 515Q283 515 296 500T309 447Q309 409 296 394ZM287 144Q288 131 275 123T222 100L127 67V-50Q168 -56 216 -56Q275
-56 372 -36L385 -104Q297 -131 218 -131Q146 -131 104 -118T42 -75T22 6Q22 55 34 80T84 126T208 177L213 313H276L287 144Z" />
<glyph unicode="&#xc0;" glyph-name="Agrave" horiz-adv-x="551" d="M395 140H156L115 0H15L200 625H351L536 0H436L395 140ZM372 219L280 533H271L179 219H372ZM223 714Q209 718 201 724L174 746Q167 752 167 757Q167 761 174 769L217 822Q221 827 225 827Q228
827 233 823L385 713L363 679L223 714Z" />
<glyph unicode="&#xc1;" glyph-name="Aacute" horiz-adv-x="551" d="M395 140H156L115 0H15L200 625H351L536 0H436L395 140ZM372 219L280 533H271L179 219H372ZM191 723L343 833Q348 837 351 837Q355 837 359 832L402 779Q409 771 409 767Q409 762 402 756L375
734Q367 728 353 724L213 689L191 723Z" />
<glyph unicode="&#xc2;" glyph-name="Acircumflex" horiz-adv-x="551" d="M395 140H156L115 0H15L200 625H351L536 0H436L395 140ZM372 219L280 533H271L179 219H372ZM158 715L257 831Q262 837 267 837H285Q290 837 295 831L394 715L359 681L276 745L193 681L158 715Z" />
<glyph unicode="&#xc3;" glyph-name="Atilde" horiz-adv-x="551" d="M395 140H156L115 0H15L200 625H351L536 0H436L395 140ZM372 219L280 533H271L179 219H372ZM283 689T271 696T227 732L161 699L133 745Q190 787 214 801T255 815Q268 815 280 808T325 772L391
805L419 759Q367 719 341 704T297 689Q283 689 271 696Z" />
<glyph unicode="&#xc4;" glyph-name="Adieresis" horiz-adv-x="551" d="M395 140H156L115 0H15L200 625H351L536 0H436L395 140ZM372 219L280 533H271L179 219H372ZM153 700T143 712T133 757Q133 790 143 802T185 815Q216 815 226 803T236 757Q236 724 226 712T185
700Q153 700 143 712ZM336 700T326 712T316 757Q316 790 326 802T368 815Q399 815 409 803T419 757Q419 724 409 712T368 700Q336 700 326 712Z" />
<glyph unicode="&#xc5;" glyph-name="Aring" horiz-adv-x="551" d="M395 140H156L115 0H15L200 625H351L536 0H436L395 140ZM372 219L280 533H271L179 219H372ZM224 664T201 688T177 763Q177 813 200 837T276 861Q328 861 351 837T374 763Q374 713 351 689T276
664Q224 664 201 688ZM275 716Q297 716 307 720T317 742V809H278Q254 809 244 805T233 784V716H275Z" />
<glyph unicode="&#xc6;" glyph-name="AE" horiz-adv-x="758" d="M177 625H658L643 535H389L437 351H616V266H459L504 90H708V0H422L388 137H154L121 0H15L177 625ZM366 227L292 533H251L176 227H366Z" />
<glyph unicode="&#xc7;" glyph-name="Ccedilla" horiz-adv-x="489" d="M429 -2T391 -8T302 -15Q324 -48 324 -91Q324 -128 298 -150T228 -172Q195 -172 160 -156L167 -107H202Q226 -107 235 -100T245 -75V-13Q172 -6 134 26T80 124T65 312Q65 446 84 515T154 612T304
640Q338 640 381 634T451 619L438 537Q403 545 357 550T282 555Q221 555 197 540T172 479V83Q223 68 291 68Q369 68 454 93L464 11Q429 -2 391 -8Z" />
<glyph unicode="&#xc8;" glyph-name="Egrave" horiz-adv-x="515" d="M190 83H465V0H90V625H462L450 542H190V352H427V273H190V83ZM228 714Q214 718 206 724L179 746Q172 752 172 757Q172 761 179 769L222 822Q226 827 230 827Q233 827 238 823L390 713L368 679L228 714Z" />
<glyph unicode="&#xc9;" glyph-name="Eacute" horiz-adv-x="515" d="M190 83H465V0H90V625H462L450 542H190V352H427V273H190V83ZM196 723L348 833Q353 837 356 837Q360 837 364 832L407 779Q414 771 414 767Q414 762 407 756L380 734Q372 728 358 724L218 689L196 723Z" />
<glyph unicode="&#xca;" glyph-name="Ecircumflex" horiz-adv-x="515" d="M190 83H465V0H90V625H462L450 542H190V352H427V273H190V83ZM163 715L262 831Q267 837 272 837H290Q295 837 300 831L399 715L364 681L281 745L198 681L163 715Z" />
<glyph unicode="&#xcb;" glyph-name="Edieresis" horiz-adv-x="515" d="M190 83H465V0H90V625H462L450 542H190V352H427V273H190V83ZM158 700T148 712T138 757Q138 790 148 802T190 815Q221 815 231 803T241 757Q241 724 231 712T190 700Q158 700 148 712ZM341
700T331 712T321 757Q321 790 331 802T373 815Q404 815 414 803T424 757Q424 724 414 712T373 700Q341 700 331 712Z" />
<glyph unicode="&#xcc;" glyph-name="Igrave" horiz-adv-x="280" d="M190 625V0H90V625H190ZM87 714Q73 718 65 724L38 746Q31 752 31 757Q31 761 38 769L81 822Q85 827 89 827Q92 827 97 823L249 713L227 679L87 714Z" />
<glyph unicode="&#xcd;" glyph-name="Iacute" horiz-adv-x="280" d="M190 625V0H90V625H190ZM55 723L207 833Q212 837 215 837Q219 837 223 832L266 779Q273 771 273 767Q273 762 266 756L239 734Q231 728 217 724L77 689L55 723Z" />
<glyph unicode="&#xce;" glyph-name="Icircumflex" horiz-adv-x="280" d="M190 625V0H90V625H190ZM22 715L121 831Q126 837 131 837H149Q154 837 159 831L258 715L223 681L140 745L57 681L22 715Z" />
<glyph unicode="&#xcf;" glyph-name="Idieresis" horiz-adv-x="280" d="M190 625V0H90V625H190ZM17 700T7 712T-3 757Q-3 790 7 802T49 815Q80 815 90 803T100 757Q100 724 90 712T49 700Q17 700 7 712ZM200 700T190 712T180 757Q180 790 190 802T232 815Q263
815 273 803T283 757Q283 724 273 712T232 700Q200 700 190 712Z" />
<glyph unicode="&#xd0;" glyph-name="Eth" horiz-adv-x="624" d="M419 625T470 601T540 512T559 312Q559 178 540 114T470 25T314 0H90V278H28V306Q28 331 36 339T69 348H90V625H314Q419 625 470 601ZM451 469Q451 510 434 526T373 542H190V348H292V319Q292 294
285 286T251 278H190V83H373Q417 83 434 99T451 156V469Z" />
<glyph unicode="&#xd1;" glyph-name="Ntilde" horiz-adv-x="661" d="M95 625H192L434 235Q449 209 454 199T460 173H466V625H566V0H469L227 390Q212 416 207 426T201 452H195V0H95V625ZM348 689T336 696T292 732L226 699L198 745Q255 787 279 801T320 815Q333
815 345 808T390 772L456 805L484 759Q432 719 406 704T362 689Q348 689 336 696Z" />
<glyph unicode="&#xd2;" glyph-name="Ograve" horiz-adv-x="636" d="M65 453T85 521T157 614T318 640Q426 640 478 614T551 520T571 312Q571 172 551 104T479 11T318 -15Q209 -15 157 10T85 104T65 312Q65 453 85 521ZM378 70Q426 70 445 86T464 143V555H257Q209
555 191 539T172 482V70H378ZM265 714Q251 718 243 724L216 746Q209 752 209 757Q209 761 216 769L259 822Q263 827 267 827Q270 827 275 823L427 713L405 679L265 714Z" />
<glyph unicode="&#xd3;" glyph-name="Oacute" horiz-adv-x="636" d="M65 453T85 521T157 614T318 640Q426 640 478 614T551 520T571 312Q571 172 551 104T479 11T318 -15Q209 -15 157 10T85 104T65 312Q65 453 85 521ZM378 70Q426 70 445 86T464 143V555H257Q209
555 191 539T172 482V70H378ZM233 723L385 833Q390 837 393 837Q397 837 401 832L444 779Q451 771 451 767Q451 762 444 756L417 734Q409 728 395 724L255 689L233 723Z" />
<glyph unicode="&#xd4;" glyph-name="Ocircumflex" horiz-adv-x="636" d="M65 453T85 521T157 614T318 640Q426 640 478 614T551 520T571 312Q571 172 551 104T479 11T318 -15Q209 -15 157 10T85 104T65 312Q65 453 85 521ZM378 70Q426 70 445 86T464 143V555H257Q209
555 191 539T172 482V70H378ZM200 715L299 831Q304 837 309 837H327Q332 837 337 831L436 715L401 681L318 745L235 681L200 715Z" />
<glyph unicode="&#xd5;" glyph-name="Otilde" horiz-adv-x="636" d="M65 453T85 521T157 614T318 640Q426 640 478 614T551 520T571 312Q571 172 551 104T479 11T318 -15Q209 -15 157 10T85 104T65 312Q65 453 85 521ZM378 70Q426 70 445 86T464 143V555H257Q209
555 191 539T172 482V70H378ZM325 689T313 696T269 732L203 699L175 745Q232 787 256 801T297 815Q310 815 322 808T367 772L433 805L461 759Q409 719 383 704T339 689Q325 689 313 696Z" />
<glyph unicode="&#xd6;" glyph-name="Odieresis" horiz-adv-x="636" d="M65 453T85 521T157 614T318 640Q426 640 478 614T551 520T571 312Q571 172 551 104T479 11T318 -15Q209 -15 157 10T85 104T65 312Q65 453 85 521ZM378 70Q426 70 445 86T464 143V555H257Q209
555 191 539T172 482V70H378ZM195 700T185 712T175 757Q175 790 185 802T227 815Q258 815 268 803T278 757Q278 724 268 712T227 700Q195 700 185 712ZM378 700T368 712T358 757Q358 790 368 802T410 815Q441 815 451 803T461 757Q461 724 451 712T410 700Q378
700 368 712Z" />
<glyph unicode="&#xd7;" glyph-name="multiply" horiz-adv-x="530" d="M321 312L445 188L389 132L265 256L141 132L85 188L209 312L85 436L141 492L265 368L389 492L445 436L321 312Z" />
<glyph unicode="&#xd8;" glyph-name="Oslash" horiz-adv-x="636" d="M533 585T552 517T571 312Q571 172 551 104T479 11T318 -15Q247 -15 208 -6L190 -48Q183 -64 174 -69T147 -75H116L154 12Q119 31 100 67T73 161T65 312Q65 453 85 521T157 614T318 640Q388
640 428 631L446 673Q453 689 462 695T489 701H520L481 613Q533 585 552 517ZM180 70L394 555H257Q209 555 191 539T172 482V70H180ZM464 555H456L242 70H378Q426 70 445 86T464 143V555Z" />
<glyph unicode="&#xd9;" glyph-name="Ugrave" horiz-adv-x="638" d="M219 -15T169 2T100 61T80 189V625H180V70H324Q380 70 408 74T447 90T458 123V625H558V189Q558 104 539 62T469 2T319 -15Q219 -15 169 2ZM267 714Q253 718 245 724L218 746Q211 752 211 757Q211
761 218 769L261 822Q265 827 269 827Q272 827 277 823L429 713L407 679L267 714Z" />
<glyph unicode="&#xda;" glyph-name="Uacute" horiz-adv-x="638" d="M219 -15T169 2T100 61T80 189V625H180V70H324Q380 70 408 74T447 90T458 123V625H558V189Q558 104 539 62T469 2T319 -15Q219 -15 169 2ZM235 723L387 833Q392 837 395 837Q399 837 403 832L446
779Q453 771 453 767Q453 762 446 756L419 734Q411 728 397 724L257 689L235 723Z" />
<glyph unicode="&#xdb;" glyph-name="Ucircumflex" horiz-adv-x="638" d="M219 -15T169 2T100 61T80 189V625H180V70H324Q380 70 408 74T447 90T458 123V625H558V189Q558 104 539 62T469 2T319 -15Q219 -15 169 2ZM202 715L301 831Q306 837 311 837H329Q334 837
339 831L438 715L403 681L320 745L237 681L202 715Z" />
<glyph unicode="&#xdc;" glyph-name="Udieresis" horiz-adv-x="638" d="M219 -15T169 2T100 61T80 189V625H180V70H324Q380 70 408 74T447 90T458 123V625H558V189Q558 104 539 62T469 2T319 -15Q219 -15 169 2ZM197 700T187 712T177 757Q177 790 187 802T229
815Q260 815 270 803T280 757Q280 724 270 712T229 700Q197 700 187 712ZM380 700T370 712T360 757Q360 790 370 802T412 815Q443 815 453 803T463 757Q463 724 453 712T412 700Q380 700 370 712Z" />
<glyph unicode="&#xdd;" glyph-name="Yacute" horiz-adv-x="490" d="M480 625L295 215V0H195V215L10 625H114L245 319L376 625H480ZM160 723L312 833Q317 837 320 837Q324 837 328 832L371 779Q378 771 378 767Q378 762 371 756L344 734Q336 728 322 724L182 689L160
723Z" />
<glyph unicode="&#xde;" glyph-name="Thorn" horiz-adv-x="530" d="M402 522T439 502T493 437T510 311Q510 199 473 151T350 103H190V0H90V625H190V522H335Q402 522 439 502ZM405 401Q405 425 390 434T336 443H190V182H336Q375 182 390 191T405 224V401Z" />
<glyph unicode="&#xdf;" glyph-name="germandbls" horiz-adv-x="630" d="M333 -15T258 8L274 88Q306 77 342 71T410 64Q461 64 485 71V196Q408 231 376 249T333 280T322 315Q322 336 332 353T365 397Q392 427 406 452T420 511Q420 555 391 575T300 596Q264 596
220 588V0H120V431H50V500H120Q125 565 145 603T206 658T312 675Q418 675 469 638T520 525Q520 480 496 436T410 324Q481 293 518 267T570 211T585 136Q585 57 541 21T400 -15Q333 -15 258 8Z" />
<glyph unicode="&#xe0;" glyph-name="agrave" horiz-adv-x="545" d="M345 510T385 497T442 453T460 370V0H414L387 50Q351 19 308 5T208 -10Q125 -10 90 24T55 140Q55 213 75 245T153 288T345 299H360V420Q323 431 259 431Q179 431 90 407L77 480Q114 493 169
501T276 510Q345 510 385 497ZM327 67T343 79T360 125V234H227Q180 234 163 222T146 176V67H280Q327 67 343 79ZM223 589Q209 593 201 599L174 621Q167 627 167 632Q167 636 174 644L217 697Q221 702 225 702Q228 702 233 698L385 588L363 554L223 589Z" />
<glyph unicode="&#xe1;" glyph-name="aacute" horiz-adv-x="545" d="M345 510T385 497T442 453T460 370V0H414L387 50Q351 19 308 5T208 -10Q125 -10 90 24T55 140Q55 213 75 245T153 288T345 299H360V420Q323 431 259 431Q179 431 90 407L77 480Q114 493 169
501T276 510Q345 510 385 497ZM327 67T343 79T360 125V234H227Q180 234 163 222T146 176V67H280Q327 67 343 79ZM191 598L343 708Q348 712 351 712Q355 712 359 707L402 654Q409 646 409 642Q409 637 402 631L375 609Q367 603 353 599L213 564L191 598Z" />
<glyph unicode="&#xe2;" glyph-name="acircumflex" horiz-adv-x="545" d="M345 510T385 497T442 453T460 370V0H414L387 50Q351 19 308 5T208 -10Q125 -10 90 24T55 140Q55 213 75 245T153 288T345 299H360V420Q323 431 259 431Q179 431 90 407L77 480Q114 493
169 501T276 510Q345 510 385 497ZM327 67T343 79T360 125V234H227Q180 234 163 222T146 176V67H280Q327 67 343 79ZM158 590L257 706Q262 712 267 712H285Q290 712 295 706L394 590L359 556L276 620L193 556L158 590Z" />
<glyph unicode="&#xe3;" glyph-name="atilde" horiz-adv-x="545" d="M345 510T385 497T442 453T460 370V0H414L387 50Q351 19 308 5T208 -10Q125 -10 90 24T55 140Q55 213 75 245T153 288T345 299H360V420Q323 431 259 431Q179 431 90 407L77 480Q114 493 169
501T276 510Q345 510 385 497ZM327 67T343 79T360 125V234H227Q180 234 163 222T146 176V67H280Q327 67 343 79ZM283 564T271 571T227 607L161 574L133 620Q190 662 214 676T255 690Q268 690 280 683T325 647L391 680L419 634Q367 594 341 579T297 564Q283 564
271 571Z" />
<glyph unicode="&#xe4;" glyph-name="adieresis" horiz-adv-x="545" d="M345 510T385 497T442 453T460 370V0H414L387 50Q351 19 308 5T208 -10Q125 -10 90 24T55 140Q55 213 75 245T153 288T345 299H360V420Q323 431 259 431Q179 431 90 407L77 480Q114 493 169
501T276 510Q345 510 385 497ZM327 67T343 79T360 125V234H227Q180 234 163 222T146 176V67H280Q327 67 343 79ZM153 575T143 587T133 632Q133 665 143 677T185 690Q216 690 226 678T236 632Q236 599 226 587T185 575Q153 575 143 587ZM336 575T326 587T316 632Q316
665 326 677T368 690Q399 690 409 678T419 632Q419 599 409 587T368 575Q336 575 326 587Z" />
<glyph unicode="&#xe5;" glyph-name="aring" horiz-adv-x="545" d="M345 510T385 497T442 453T460 370V0H414L387 50Q351 19 308 5T208 -10Q125 -10 90 24T55 140Q55 213 75 245T153 288T345 299H360V420Q323 431 259 431Q179 431 90 407L77 480Q114 493 169 501T276
510Q345 510 385 497ZM327 67T343 79T360 125V234H227Q180 234 163 222T146 176V67H280Q327 67 343 79ZM224 539T201 563T177 638Q177 688 200 712T276 736Q328 736 351 712T374 638Q374 588 351 564T276 539Q224 539 201 563ZM275 591Q297 591 307 595T317 617V684H278Q254
684 244 680T233 659V591H275Z" />
<glyph unicode="&#xe6;" glyph-name="ae" horiz-adv-x="837" d="M609 69T648 74T741 93L754 20Q715 6 661 -2T550 -10Q485 -10 448 4T389 52Q353 20 309 5T208 -10Q125 -10 90 24T55 140Q55 213 75 245T153 288T345 299H360V420Q323 431 259 431Q179 431 90 407L77
480Q114 493 169 501T276 510Q330 510 366 502T423 476Q446 494 480 502T567 510Q648 510 690 497T750 453T767 360Q767 287 746 255T664 212T461 201V80Q504 69 568 69Q609 69 648 74ZM496 428T479 416T461 370V266H593Q642 266 659 278T677 324V428H544Q496 428
479 416ZM327 67T343 79T360 125V234H227Q180 234 163 222T146 176V67H280Q327 67 343 79Z" />
<glyph unicode="&#xe7;" glyph-name="ccedilla" horiz-adv-x="453" d="M355 -4T270 -9Q282 -26 289 -47T296 -91Q296 -128 270 -150T200 -172Q167 -172 132 -156L139 -107H174Q198 -107 207 -100T217 -75V-10Q153 -7 120 17T74 95T60 250Q60 357 75 412T128 488T240
510Q281 510 325 505T402 492L390 416Q318 431 251 431Q202 431 183 413T164 347V80Q200 69 266 69Q298 69 328 74T402 93L413 20Q355 -4 270 -9Z" />
<glyph unicode="&#xe8;" glyph-name="egrave" horiz-adv-x="541" d="M313 69T352 74T445 93L458 20Q421 6 367 -2T254 -10Q176 -10 135 12T77 90T60 250Q60 351 79 406T144 486T271 510Q352 510 394 497T454 453T471 360Q471 287 450 255T368 212T165 201V80Q205
69 272 69Q313 69 352 74ZM200 428T183 416T165 370V266H297Q346 266 363 278T381 324V428H248Q200 428 183 416ZM218 589Q204 593 196 599L169 621Q162 627 162 632Q162 636 169 644L212 697Q216 702 220 702Q223 702 228 698L380 588L358 554L218 589Z" />
<glyph unicode="&#xe9;" glyph-name="eacute" horiz-adv-x="541" d="M313 69T352 74T445 93L458 20Q421 6 367 -2T254 -10Q176 -10 135 12T77 90T60 250Q60 351 79 406T144 486T271 510Q352 510 394 497T454 453T471 360Q471 287 450 255T368 212T165 201V80Q205
69 272 69Q313 69 352 74ZM200 428T183 416T165 370V266H297Q346 266 363 278T381 324V428H248Q200 428 183 416ZM186 598L338 708Q343 712 346 712Q350 712 354 707L397 654Q404 646 404 642Q404 637 397 631L370 609Q362 603 348 599L208 564L186 598Z" />
<glyph unicode="&#xea;" glyph-name="ecircumflex" horiz-adv-x="541" d="M313 69T352 74T445 93L458 20Q421 6 367 -2T254 -10Q176 -10 135 12T77 90T60 250Q60 351 79 406T144 486T271 510Q352 510 394 497T454 453T471 360Q471 287 450 255T368 212T165 201V80Q205
69 272 69Q313 69 352 74ZM200 428T183 416T165 370V266H297Q346 266 363 278T381 324V428H248Q200 428 183 416ZM153 590L252 706Q257 712 262 712H280Q285 712 290 706L389 590L354 556L271 620L188 556L153 590Z" />
<glyph unicode="&#xeb;" glyph-name="edieresis" horiz-adv-x="541" d="M313 69T352 74T445 93L458 20Q421 6 367 -2T254 -10Q176 -10 135 12T77 90T60 250Q60 351 79 406T144 486T271 510Q352 510 394 497T454 453T471 360Q471 287 450 255T368 212T165 201V80Q205
69 272 69Q313 69 352 74ZM200 428T183 416T165 370V266H297Q346 266 363 278T381 324V428H248Q200 428 183 416ZM148 575T138 587T128 632Q128 665 138 677T180 690Q211 690 221 678T231 632Q231 599 221 587T180 575Q148 575 138 587ZM331 575T321 587T311 632Q311
665 321 677T363 690Q394 690 404 678T414 632Q414 599 404 587T363 575Q331 575 321 587Z" />
<glyph unicode="&#xec;" glyph-name="igrave" horiz-adv-x="280" d="M190 508V0H90V493L190 508ZM87 589Q73 593 65 599L38 621Q31 627 31 632Q31 636 38 644L81 697Q85 702 89 702Q92 702 97 698L249 588L227 554L87 589Z" />
<glyph unicode="&#xed;" glyph-name="iacute" horiz-adv-x="280" d="M190 508V0H90V493L190 508ZM55 598L207 708Q212 712 215 712Q219 712 223 707L266 654Q273 646 273 642Q273 637 266 631L239 609Q231 603 217 599L77 564L55 598Z" />
<glyph unicode="&#xee;" glyph-name="icircumflex" horiz-adv-x="280" d="M190 508V0H90V493L190 508ZM22 590L121 706Q126 712 131 712H149Q154 712 159 706L258 590L223 556L140 620L57 556L22 590Z" />
<glyph unicode="&#xef;" glyph-name="idieresis" horiz-adv-x="280" d="M190 508V0H90V493L190 508ZM17 575T7 587T-3 632Q-3 665 7 677T49 690Q80 690 90 678T100 632Q100 599 90 587T49 575Q17 575 7 587ZM200 575T190 587T180 632Q180 665 190 677T232 690Q263
690 273 678T283 632Q283 599 273 587T232 575Q200 575 190 587Z" />
<glyph unicode="&#xf0;" glyph-name="eth" horiz-adv-x="557" d="M513 600T513 589Q513 574 496 568L443 550Q489 445 489 358V215Q489 122 471 75T409 9T277 -10Q190 -10 146 9T83 75T65 215Q65 308 83 355T145 421T277 440H385Q376 483 358 522L276 495L267
522Q261 540 261 551Q261 566 278 572L326 588Q313 612 285 653L371 677Q389 652 410 616L498 645L507 618Q513 600 513 589ZM384 358H216Q189 358 180 353T170 333V72H338Q365 72 374 77T384 97V358Z" />
<glyph unicode="&#xf1;" glyph-name="ntilde" horiz-adv-x="576" d="M90 500H136L163 450Q201 481 246 495T349 510Q419 510 455 489T491 425V0H391V428H275Q226 428 208 416T190 370V0H90V500ZM305 564T293 571T249 607L183 574L155 620Q212 662 236 676T277
690Q290 690 302 683T347 647L413 680L441 634Q389 594 363 579T319 564Q305 564 293 571Z" />
<glyph unicode="&#xf2;" glyph-name="ograve" horiz-adv-x="554" d="M187 -10T142 11T78 88T60 250Q60 357 78 412T141 488T277 510Q368 510 413 489T476 413T494 250Q494 143 476 88T413 12T277 -10Q187 -10 142 11ZM342 72Q371 72 380 77T390 97V428H212Q183
428 174 423T164 403V72H342ZM224 589Q210 593 202 599L175 621Q168 627 168 632Q168 636 175 644L218 697Q222 702 226 702Q229 702 234 698L386 588L364 554L224 589Z" />
<glyph unicode="&#xf3;" glyph-name="oacute" horiz-adv-x="554" d="M187 -10T142 11T78 88T60 250Q60 357 78 412T141 488T277 510Q368 510 413 489T476 413T494 250Q494 143 476 88T413 12T277 -10Q187 -10 142 11ZM342 72Q371 72 380 77T390 97V428H212Q183
428 174 423T164 403V72H342ZM192 598L344 708Q349 712 352 712Q356 712 360 707L403 654Q410 646 410 642Q410 637 403 631L376 609Q368 603 354 599L214 564L192 598Z" />
<glyph unicode="&#xf4;" glyph-name="ocircumflex" horiz-adv-x="554" d="M187 -10T142 11T78 88T60 250Q60 357 78 412T141 488T277 510Q368 510 413 489T476 413T494 250Q494 143 476 88T413 12T277 -10Q187 -10 142 11ZM342 72Q371 72 380 77T390 97V428H212Q183
428 174 423T164 403V72H342ZM159 590L258 706Q263 712 268 712H286Q291 712 296 706L395 590L360 556L277 620L194 556L159 590Z" />
<glyph unicode="&#xf5;" glyph-name="otilde" horiz-adv-x="554" d="M187 -10T142 11T78 88T60 250Q60 357 78 412T141 488T277 510Q368 510 413 489T476 413T494 250Q494 143 476 88T413 12T277 -10Q187 -10 142 11ZM342 72Q371 72 380 77T390 97V428H212Q183
428 174 423T164 403V72H342ZM284 564T272 571T228 607L162 574L134 620Q191 662 215 676T256 690Q269 690 281 683T326 647L392 680L420 634Q368 594 342 579T298 564Q284 564 272 571Z" />
<glyph unicode="&#xf6;" glyph-name="odieresis" horiz-adv-x="554" d="M187 -10T142 11T78 88T60 250Q60 357 78 412T141 488T277 510Q368 510 413 489T476 413T494 250Q494 143 476 88T413 12T277 -10Q187 -10 142 11ZM342 72Q371 72 380 77T390 97V428H212Q183
428 174 423T164 403V72H342ZM154 575T144 587T134 632Q134 665 144 677T186 690Q217 690 227 678T237 632Q237 599 227 587T186 575Q154 575 144 587ZM337 575T327 587T317 632Q317 665 327 677T369 690Q400 690 410 678T420 632Q420 599 410 587T369 575Q337
575 327 587Z" />
<glyph unicode="&#xf7;" glyph-name="divide" horiz-adv-x="530" d="M217 502T226 513T265 525Q294 525 304 514T314 474Q314 445 304 434T265 423Q236 423 227 434T217 474Q217 502 226 513ZM450 352V272H80V352H450ZM217 161T226 172T265 184Q294 184 304 173T314
133Q314 104 304 93T265 82Q236 82 227 93T217 133Q217 161 226 172Z" />
<glyph unicode="&#xf8;" glyph-name="oslash" horiz-adv-x="554" d="M463 460T478 406T494 250Q494 143 476 88T413 12T277 -10Q221 -10 186 -3L149 -78Q142 -93 133 -98T106 -103H75L133 16Q92 41 76 94T60 250Q60 357 78 412T141 488T277 510Q333 510 369 503L405
577Q412 592 421 597T448 602H479L422 484Q463 460 478 406ZM164 80L333 428H212Q183 428 174 423T164 403V80ZM371 72T380 77T390 97V419L222 72H342Q371 72 380 77Z" />
<glyph unicode="&#xf9;" glyph-name="ugrave" horiz-adv-x="576" d="M486 0H440L413 50Q373 19 326 5T217 -10Q149 -10 117 15T85 95V500H185V67H301Q350 67 368 79T386 125V500H486V0ZM235 589Q221 593 213 599L186 621Q179 627 179 632Q179 636 186 644L229
697Q233 702 237 702Q240 702 245 698L397 588L375 554L235 589Z" />
<glyph unicode="&#xfa;" glyph-name="uacute" horiz-adv-x="576" d="M486 0H440L413 50Q373 19 326 5T217 -10Q149 -10 117 15T85 95V500H185V67H301Q350 67 368 79T386 125V500H486V0ZM203 598L355 708Q360 712 363 712Q367 712 371 707L414 654Q421 646 421
642Q421 637 414 631L387 609Q379 603 365 599L225 564L203 598Z" />
<glyph unicode="&#xfb;" glyph-name="ucircumflex" horiz-adv-x="576" d="M486 0H440L413 50Q373 19 326 5T217 -10Q149 -10 117 15T85 95V500H185V67H301Q350 67 368 79T386 125V500H486V0ZM170 590L269 706Q274 712 279 712H297Q302 712 307 706L406 590L371
556L288 620L205 556L170 590Z" />
<glyph unicode="&#xfc;" glyph-name="udieresis" horiz-adv-x="576" d="M486 0H440L413 50Q373 19 326 5T217 -10Q149 -10 117 15T85 95V500H185V67H301Q350 67 368 79T386 125V500H486V0ZM165 575T155 587T145 632Q145 665 155 677T197 690Q228 690 238 678T248
632Q248 599 238 587T197 575Q165 575 155 587ZM348 575T338 587T328 632Q328 665 338 677T380 690Q411 690 421 678T431 632Q431 599 421 587T380 575Q348 575 338 587Z" />
<glyph unicode="&#xfd;" glyph-name="yacute" horiz-adv-x="450" d="M444 500L301 30Q277 -49 250 -93T186 -156T93 -175Q44 -175 6 -164L10 -111L79 -102Q118 -97 138 -88T172 -58T196 0L205 30H149L6 500H105L220 115H230L345 500H444ZM140 598L292 708Q297
712 300 712Q304 712 308 707L351 654Q358 646 358 642Q358 637 351 631L324 609Q316 603 302 599L162 564L140 598Z" />
<glyph unicode="&#xfe;" glyph-name="thorn" horiz-adv-x="569" d="M404 510T442 489T494 413T509 250Q509 141 494 86T441 8T329 -15Q279 -15 246 -10T190 9V-165L90 -177V650L190 665V486Q212 500 245 505T329 510Q404 510 442 489ZM404 428H236Q210 428 200
424T190 408V67H358Q385 67 394 72T404 92V428Z" />
<glyph unicode="&#xff;" glyph-name="ydieresis" horiz-adv-x="450" d="M444 500L301 30Q277 -49 250 -93T186 -156T93 -175Q44 -175 6 -164L10 -111L79 -102Q118 -97 138 -88T172 -58T196 0L205 30H149L6 500H105L220 115H230L345 500H444ZM102 575T92 587T82
632Q82 665 92 677T134 690Q165 690 175 678T185 632Q185 599 175 587T134 575Q102 575 92 587ZM285 575T275 587T265 632Q265 665 275 677T317 690Q348 690 358 678T368 632Q368 599 358 587T317 575Q285 575 275 587Z" />
<glyph unicode="&#x2013;" glyph-name="endash" horiz-adv-x="535" d="M33 305T44 311T84 317H502V267Q502 245 491 239T451 233H33V283Q33 305 44 311Z" />
<glyph unicode="&#x2014;" glyph-name="emdash" horiz-adv-x="794" d="M33 305T44 311T84 317H761V267Q761 245 750 239T710 233H33V283Q33 305 44 311Z" />
<glyph unicode="&#x2018;" glyph-name="quoteleft" horiz-adv-x="230" d="M159 668L139 578Q162 573 171 559T180 512Q180 473 166 458T113 443Q78 443 64 458T50 512Q50 529 55 548T76 601L114 682L159 668Z" />
<glyph unicode="&#x2019;" glyph-name="quoteright" horiz-adv-x="230" d="M71 457L91 547Q68 552 59 566T50 613Q50 652 64 667T117 682Q152 682 166 667T180 613Q180 596 175 577T154 524L116 443L71 457Z" />
<glyph unicode="&#x201a;" glyph-name="quotesinglbase" horiz-adv-x="230" d="M71 -94L91 -4Q68 1 59 15T50 62Q50 101 64 116T117 131Q152 131 166 116T180 62Q180 45 175 26T154 -27L116 -108L71 -94Z" />
<glyph unicode="&#x201c;" glyph-name="quotedblleft" horiz-adv-x="400" d="M159 668L139 578Q162 573 171 559T180 512Q180 473 166 458T113 443Q78 443 64 458T50 512Q50 529 55 548T76 601L114 682L159 668ZM329 668L309 578Q332 573 341 559T350 512Q350
473 336 458T283 443Q248 443 234 458T220 512Q220 529 225 548T246 601L284 682L329 668Z" />
<glyph unicode="&#x201d;" glyph-name="quotedblright" horiz-adv-x="400" d="M241 457L261 547Q238 552 229 566T220 613Q220 652 234 667T287 682Q322 682 336 667T350 613Q350 596 345 577T324 524L286 443L241 457ZM71 457L91 547Q68 552 59 566T50 613Q50
652 64 667T117 682Q152 682 166 667T180 613Q180 596 175 577T154 524L116 443L71 457Z" />
<glyph unicode="&#x201e;" glyph-name="quotedblbase" horiz-adv-x="401" d="M242 -94L262 -4Q239 1 230 15T221 62Q221 101 235 116T288 131Q323 131 337 116T351 62Q351 45 346 26T325 -27L287 -108L242 -94ZM71 -94L91 -4Q68 1 59 15T50 62Q50 101 64 116T117
131Q152 131 166 116T180 62Q180 45 175 26T154 -27L116 -108L71 -94Z" />
<glyph unicode="&#x2022;" glyph-name="bullet" horiz-adv-x="282" d="M65 356T80 372T142 389Q186 389 201 372T217 314Q217 273 202 257T142 241Q96 241 81 257T65 314Q65 356 80 372Z" />
<glyph unicode="&#x2039;" glyph-name="guilsinglleft" horiz-adv-x="236" d="M25 209V290L176 444L211 417L115 250L211 83L176 56L25 209Z" />
<glyph unicode="&#x203a;" glyph-name="guilsinglright" horiz-adv-x="236" d="M211 291V210L60 56L25 83L121 250L25 417L60 444L211 291Z" />
</font>
</defs>
</svg>
